<?xml version="1.0" encoding="utf-8"?>
<!-- Generator: Adobe Illustrator 22.1.0, SVG Export Plug-In . SVG Version: 6.00 Build 0)  -->
<svg version="1.1" id="Layer_1" xmlns="http://www.w3.org/2000/svg" xmlns:xlink="http://www.w3.org/1999/xlink" x="0px" y="0px"
	 viewBox="0 0 250 131.8" style="enable-background:new 0 0 250 131.8;" xml:space="preserve">
<style type="text/css">
	.st0{fill:#FFFFFF;}
</style>
<g id="QNMr54_1_">
	<g>
		<path d="M203.3,131.8c-1.2-0.2-2.3-0.3-3.5-0.5c-9.8-1.8-17.1-9.7-18.1-19.7c-1-9.6,3.8-18.4,12.4-22.5c4.2-2.1,8.7-2.7,13.4-2.1
			c5.4,0.6,10.1,2.9,13.9,6.9c4.2,4.5,6.2,9.9,6,16c-0.2,6.7-2.8,12.3-7.9,16.6c-3.4,2.9-7.4,4.5-11.8,5.1c-0.6,0.1-1.3,0.2-1.9,0.2
			C205,131.8,204.1,131.8,203.3,131.8z M215.9,109.3c0-6.4-5-11.4-11.3-11.4c-6.4,0-11.3,5-11.3,11.5c0,6.4,5,11.4,11.3,11.4
			C210.9,120.7,215.9,115.7,215.9,109.3z"/>
		<path d="M106.6,131.8c-1.5-0.1-2.9-0.2-4.4-0.4c-1.8-0.2-3.6-0.5-5.3-0.8c-0.2,0-0.4-0.3-0.4-0.4c0-3.2,0-6.4,0-9.6
			c1.2,0.3,2.3,0.6,3.5,0.8c3.3,0.7,6.6,1,9.9,0.6c1.2-0.2,2.3-0.5,3.3-1.1c1.9-1.3,2.2-3.6,0.4-5.1c-0.9-0.7-2-1.3-3.1-1.7
			c-2-0.8-4.1-1.3-6-2.2c-1.4-0.6-2.7-1.4-3.9-2.3c-3.1-2.4-4.4-5.6-4.3-9.5c0.2-6.5,4-11.1,10.7-12.7c3.3-0.8,6.7-0.8,10.1-0.3
			c2,0.3,4,0.6,6.1,1c0,3.2,0,6.2,0,9.3c-1.4-0.3-2.8-0.6-4.2-0.8c-2.5-0.4-5-0.7-7.6-0.1c-0.7,0.2-1.5,0.5-2.1,0.9
			c-1.7,1.1-1.9,3.3-0.3,4.6c0.8,0.6,1.7,1.1,2.7,1.5c1.7,0.7,3.5,1.1,5.3,1.8c2.6,0.9,4.9,2.3,6.6,4.5c2.7,3.2,3.2,7,2.4,11
			c-1,4.8-4.1,7.8-8.5,9.6c-2.3,0.9-4.6,1.4-7.1,1.6c-0.2,0-0.4,0.1-0.7,0.1C108.6,131.8,107.6,131.8,106.6,131.8z"/>
		<path d="M44.3,131.8c-1.2-0.2-2.5-0.3-3.7-0.5c-7.4-1.5-13-5.4-16.2-12.4c-3.8-8.5-2.5-20.3,6.1-27.1C34,89,37.9,87.5,42.3,87
			c4.3-0.5,8.4,0,12.6,1.2c0.5,0.1,0.7,0.3,0.7,0.9c0,3.6,0,7.3,0,11c-0.3-0.1-0.5-0.2-0.7-0.3c-3.6-1.7-7.3-2.4-11.2-1.7
			c-5.9,1.1-9.8,6.5-9.2,12.5c0.6,5.8,5,10.3,11.6,10.4c3.2,0.1,6.2-0.6,9.1-2c0.1-0.1,0.3-0.1,0.5-0.2c0,0.2,0,0.4,0,0.5
			c0,3.5,0,7,0,10.5c0,0.5-0.2,0.6-0.6,0.8c-2.5,0.7-4.9,1.2-7.5,1.3c-0.2,0-0.4,0.1-0.6,0.1C46.1,131.8,45.2,131.8,44.3,131.8z"/>
		<path d="M158.9,131.8c-1.2-0.2-2.5-0.3-3.7-0.5c-6.9-1.4-12.3-5-15.7-11.3c-2.1-4-2.8-8.3-2.4-12.7c0.4-5.3,2.4-9.9,6.1-13.7
			c3.5-3.5,7.7-5.6,12.6-6.4c4.7-0.8,9.3-0.3,13.9,1c0.3,0.1,0.5,0.2,0.5,0.6c0,3.6,0,7.3,0,10.9c0,0.1,0,0.1,0,0.2
			c-0.8-0.3-1.6-0.7-2.4-1c-3.6-1.2-7.2-1.7-10.9-0.6c-5.1,1.5-8.3,6.3-7.9,11.5c0.4,6.5,5.1,10.9,11.6,11c3.2,0,6.2-0.6,9.1-2
			c0.1-0.1,0.3-0.1,0.5-0.2c0,3.9,0,7.7,0,11.7c-1.5,0.3-3,0.7-4.5,1c-1.4,0.2-2.7,0.3-4.1,0.5C160.5,131.8,159.7,131.8,158.9,131.8
			z"/>
		<path d="M70.7,34.3c0,9.5,0,19,0,28.6c0,2.9-1.7,5-4.3,5.6c-3.2,0.7-6.4-1.8-6.5-5.1c0-0.1,0-0.3,0-0.4c0-19.1,0-38.2,0-57.3
			c0-2.1,0.8-3.7,2.6-4.8c3.5-2.2,8.2,0.3,8.3,4.4c0.1,4.4,0,8.9,0,13.3C70.7,23.8,70.7,29,70.7,34.3z"/>
		<path d="M190.2,34.3c0,9.5,0,18.9,0,28.4c0,2.2-0.8,4-2.8,5.1c-3.5,2-7.8-0.4-8.1-4.6c0-0.2,0-0.4,0-0.6c0-19,0-38,0-56.9
			c0-2.7,1.4-4.7,3.7-5.5c3.3-1.2,6.9,1.2,7.1,4.7c0,0.4,0,0.8,0,1.2C190.2,15.5,190.2,24.9,190.2,34.3z"/>
		<path d="M81.6,131c-3.7,0-7.2,0-10.9,0c0-14.5,0-28.9,0-43.4c3.6,0,7.2,0,10.9,0C81.6,102,81.6,116.5,81.6,131z"/>
		<path d="M220.1,39.1c0,4.4,0,8.8,0,13.3c0,2.1-1,3.7-2.8,4.7s-3.7,1-5.5-0.1c-1.7-1.1-2.6-2.7-2.6-4.7c0-8.7,0-17.5,0-26.2
			c0-2.8,2-5.1,4.6-5.4c2.8-0.4,5.3,1.2,6,3.9c0.2,0.6,0.2,1.2,0.2,1.8C220.2,30.5,220.1,34.8,220.1,39.1L220.1,39.1z"/>
		<path d="M40.8,39.1c0,4.3,0,8.6,0,12.9c0,2.7-1.7,4.9-4.1,5.5c-3.4,0.8-6.6-1.7-6.7-5.2c0-1.3,0-2.6,0-4c0-7.4,0-14.8,0-22.2
			c0-2.7,1.6-4.8,4-5.5c3.6-1,6.9,1.6,6.9,5.4C40.8,30.5,40.8,34.8,40.8,39.1z"/>
		<path d="M100.6,39.1c0,4.3,0,8.7,0,13c0,2.6-1.7,4.8-4.1,5.4c-3.5,0.8-6.7-1.7-6.8-5.4c0-2.8,0-5.6,0-8.4c0-5.8,0-11.7,0-17.5
			c0-2.7,1.6-4.8,4-5.5c3.5-1,6.9,1.6,6.9,5.3C100.6,30.4,100.6,34.7,100.6,39.1z"/>
		<path d="M149.5,39.1c0-4.3,0-8.6,0-12.9c0-2.7,1.5-4.8,3.9-5.5c3.5-1,6.9,1.5,7,5.3c0,2.2,0,4.3,0,6.5c0,6.5,0,13.1,0,19.6
			c0,2.8-1.8,5-4.4,5.6c-3.1,0.6-6.3-1.7-6.4-4.9c-0.1-3,0-6-0.1-9.1C149.5,42.2,149.5,40.6,149.5,39.1z"/>
		<path d="M0,46.6c0-1.9,0-3.9,0-5.8c0-2.2,1.4-4.1,3.5-4.9c2.1-0.8,4.4-0.3,5.9,1.4c0.9,1,1.4,2.2,1.4,3.5c0,3.9,0,7.8,0,11.7
			c0,2.9-2.4,5.3-5.4,5.3S0,55.5-0.1,52.6C0,50.5,0,48.6,0,46.6L0,46.6z"/>
		<path d="M250,46.5c0,2,0,3.9,0,5.9c0,2.3-1.5,4.3-3.7,5s-4.5,0-5.9-1.8c-0.8-0.9-1.2-2-1.2-3.2c0-3.9,0-7.8,0-11.7
			c0-2.9,2.5-5.3,5.4-5.3s5.3,2.3,5.4,5.2C250,42.6,250,44.6,250,46.5z"/>
		<path d="M119.6,46.5c0-1.9,0-3.7,0-5.6c0-3,2.1-5.2,5.1-5.5c2.7-0.2,5.2,1.8,5.6,4.6c0,0.3,0.1,0.5,0.1,0.8c0,3.8,0,7.6,0,11.4
			c0,2.1-1,3.8-2.9,4.8s-3.7,0.9-5.5-0.3c-1.6-1-2.4-2.5-2.5-4.4C119.6,50.5,119.6,48.5,119.6,46.5L119.6,46.5z"/>
	</g>
</g>
</svg>
