<svg id="Layer_1" data-name="Layer 1" xmlns="http://www.w3.org/2000/svg" viewBox="0 0 252.49 101"><title>ebay</title><path d="M34,80.57C2.46,80.56,1.23,105,1.39,111.41c0,0-1.55,28.68,31.86,28.68C62,140.09,63.38,122,63.38,122H50.17s-2.57,10.14-16.86,9.88C14.94,131.58,14.23,114,14.23,114H65.11S69,80.58,34,80.57ZM14.65,105s0.9-16.09,19.06-16.1S51.81,105,51.81,105H14.65Zm85.42-24.65C84.2,80.26,77,89.75,77,89.75V58H65l0.22,67.06S65.16,133,64.68,138H77l0.53-7.5S83.33,140,100.18,140s30-10.37,30.32-29.61S116,80.44,100.08,80.35Zm-2.54,51.1c-20,.25-19.72-21.26-19.72-21.26S77.08,89.48,97.5,89s19.75,21.68,19.75,21.68S117.58,131.2,97.53,131.45Zm92-6.62c0-8.68.29-16.43,0-21.9-0.33-6.34.27-21.8-27.14-22.93,0,0-26.27-2-29,17h13.44s1-8.79,14.68-8.54c12.9,0.24,15.25,6.66,15.19,14.44L161.9,103c-6.65,0-29.93.79-32.1,15C127.22,134.82,142.26,140.09,154,140s18.49-3.59,23.48-9.9L178,138l11.71-.07S189.45,133.51,189.49,124.83Zm-33.26,7.08s-12.75,0-13.5-10.18c-0.8-10.87,19.62-10.22,19.62-10.22h14.43S179.11,132.22,156.23,131.92ZM182.52,82h14.76l21.59,43.05L240.52,82h13.35L214.8,159H200.53l11.31-21.45Z" transform="translate(-1.38 -58)"/></svg>