<?xml version="1.0" encoding="utf-8"?>
<!-- Generator: Adobe Illustrator 25.2.0, SVG Export Plug-In . SVG Version: 6.00 Build 0)  -->
<svg version="1.1" id="Layer_1" xmlns="http://www.w3.org/2000/svg" xmlns:xlink="http://www.w3.org/1999/xlink" x="0px" y="0px"
	 viewBox="0 0 250 104.8" style="enable-background:new 0 0 250 104.8;" xml:space="preserve">
<style type="text/css">
	.st0{fill:#004685;}
	.st1{clip-path:url(#SVGID_2_);fill:url(#SVGID_3_);}
	.st2{clip-path:url(#SVGID_5_);fill:url(#SVGID_6_);}
	.st3{clip-path:url(#SVGID_8_);fill:url(#SVGID_9_);}
	.st4{clip-path:url(#SVGID_11_);fill:url(#SVGID_12_);}
	.st5{clip-path:url(#SVGID_14_);fill:url(#SVGID_15_);}
	.st6{clip-path:url(#SVGID_17_);fill:url(#SVGID_18_);}
	.st7{clip-path:url(#SVGID_20_);fill:url(#SVGID_21_);}
	.st8{clip-path:url(#SVGID_23_);fill:url(#SVGID_24_);}
	.st9{clip-path:url(#SVGID_26_);fill:url(#SVGID_27_);}
	.st10{clip-path:url(#SVGID_29_);fill:url(#SVGID_30_);}
	.st11{clip-path:url(#SVGID_32_);fill:url(#SVGID_33_);}
	.st12{fill:#FFFFFF;}
</style>
<g>
	<g>
		<path d="M114.3,87.8v-8.1h2.5c3.6,0,7.5,0.1,7.5,3.8c0,3.9-3.8,4.3-8.2,4.3H114.3 M114.3,92.2h3.3l9.9,11.9h10.3l-12-12.9
			c2.5-0.8,7.8-2.4,7.8-7.8c0-7.9-10.7-8.1-15.9-8.1h-11.1c-1.2,0-1.4,0.1-1.4,0.9v27.9c0,0,0.3,0,1.4,0h6.4l1.4,0L114.3,92.2
			L114.3,92.2z"/>
		<path d="M185.6,100.4c-5.1,0-7.3-4.1-7.3-10.7c0-6.5,2.2-10.7,7.3-10.7c5.1,0,7.3,4.1,7.3,10.7
			C192.9,96.3,190.8,100.4,185.6,100.4 M202.7,89.7c0-10.2-6.5-15.1-17-15.1c-10.5,0-17,4.9-17,15.1c0,10.2,6.4,15.1,17,15.1
			C196.2,104.8,202.7,99.9,202.7,89.7"/>
		<path d="M84.2,91.3h12.9v-4.5H84.2v-6.9h14.4l2-4.5H76.4h-0.1c-1,0-1.3,0.1-1.3,0.7v28.1l25.3,0l0-0.9v-2.8l0-0.9H84.2V91.3"/>
		<path d="M237.4,75.3h-5l-1.4,0c0,0,0.2,17.4,0.2,18.7l-15.4-18.1c-0.4-0.5-0.5-0.5-1.6-0.5h-5.6l-0.2,0c-0.9,0-1.2,0.1-1.3,0.6
			v28.1c0,0,0.3,0,1.4,0h5c1.2,0,1.4,0,1.4,0v-16c0-1.9-0.1-3.2-0.1-3.8c0,0,15.8,18.4,16.4,19.2c0.6,0.7,1.6,0.6,1.6,0.6h4.5l1.4,0
			V75.3L237.4,75.3"/>
		<path d="M9.2,91.3h12.9v-4.5H9.2v-6.9h14.4l2-4.5H1.4H1.3c-1,0-1.3,0.1-1.3,0.8v27.9l25.3,0v-0.9v-2.8l0-0.9H9.2V91.3"/>
		<path d="M49.8,93.2l-11-17.1c-0.4-0.5-0.5-0.5-1.6-0.5h-5.6l-1.4,0v28.7c0,0,0.3,0,1.4,0h5c1.2,0,1.4,0,1.4,0v-16
			c0-1.9-0.1-2.7-0.1-3.2c0,0,10.8,17.4,11.9,18.6l0.1,0c1.1-1.2,11.4-18.6,11.4-18.6c0,0.5-0.1,1.3-0.1,3.2v16c0,0,0.3,0,1.4,0h5
			c1.2,0,1.4,0,1.4,0V75.6l-1.4,0h-5.6c-1,0-1.2,0.1-1.6,0.5L50.1,93.2H49.8"/>
		<path d="M161,88.6c-5.7-2.7-13.4-3-13.4-6.2c0-2.5,2.5-3.3,5.5-3.3c4.7,0,8.7,1.8,9.1,1.8c0.3,0,0.5-0.2,0.7-0.4l0.4-0.6l2.3-3
			c0,0,0,0,0,0s0,0-0.1,0c-0.1-0.1-0.5-0.3-1.1-0.5c-0.5-0.2-0.7-0.3-0.9-0.3c-2.3-0.8-6.6-1.6-10.7-1.6c-7.5,0-14.2,2.5-14.2,8.6
			c0,3.5,1.6,5.7,5,7c6.6,2.6,13.2,2.5,13.2,6.2c0,2.6-1.6,3.9-5.2,3.9c-5.6,0-10.4-1.8-10.7-1.8c-0.3,0-0.6,0.2-0.7,0.4l-0.7,1.3
			l-1.2,2.3l1,0.4c2.1,0.8,7.5,2,12.6,2c8.2,0,14.1-2.7,14-8.9C165.7,92.7,164.3,90.2,161,88.6"/>
		<polygon points="244.1,100.8 244.1,104.1 243.6,104.1 243.6,100.8 242.4,100.8 242.4,100.5 245.4,100.5 245.4,100.8 		"/>
		<polygon points="249.5,104.1 249.5,100.8 248.2,104.1 247.7,104.1 246.4,100.8 246.4,104.1 246,104.1 246,100.5 246.8,100.5 
			248,103.6 249.2,100.5 250,100.5 250,104.1 		"/>
	</g>
	<g>
		<g>
			<defs>
				<path id="SVGID_34_" d="M116.3,6.1c0,0.1-0.1,0.2,0,0.4C116.5,7,132,26,132,26l7.8,3.3c2.5,1.1,3,0.8,3.2,0.6l0-0.1
					c0.2-0.3-0.3-0.9-0.9-1.7L121.6,3c-1.9-2.3-1.7-2.8-1.7-3L116.3,6.1z"/>
			</defs>
			<use xlink:href="#SVGID_34_"  style="overflow:visible;opacity:0.5;"/>
			<clipPath id="SVGID_2_">
				<use xlink:href="#SVGID_34_"  style="overflow:visible;opacity:0.5;"/>
			</clipPath>
		</g>
	</g>
	<g>
		<g>
			<defs>
				<path id="SVGID_36_" d="M106.1,23.4L106.1,23.4c-0.2,0.3,0.2,1,0.8,1.8l1.5,1.8l12.7,5.3l-4.1-5l-7.8-3.3
					c-1.4-0.6-2.2-0.8-2.6-0.8c0,0,0,0,0,0C106.3,23.2,106.1,23.3,106.1,23.4"/>
			</defs>
			<use xlink:href="#SVGID_36_"  style="overflow:visible;fill:#7F7F7F;"/>
			<clipPath id="SVGID_3_">
				<use xlink:href="#SVGID_36_"  style="overflow:visible;"/>
			</clipPath>
		</g>
	</g>
	<g>
		<g>
			<defs>
				<path id="SVGID_38_" d="M109.7,17.3c0,0-0.1,0.1-0.1,0.1l-3.6,6c0,0,0,0,0,0c0.2-0.2,0.7-0.4,3.2,0.6l28.3,11.8
					c0.4,0.2,1.4,0.5,1.8,0.2c0,0,0.2-0.2,0.2-0.2l3.5-6c0,0,0,0,0,0c-0.2,0.2-0.7,0.5-3.2-0.6l-28.3-11.8c-0.3-0.1-0.9-0.3-1.4-0.3
					C110,17.2,109.8,17.2,109.7,17.3"/>
			</defs>
			<use xlink:href="#SVGID_38_"  style="overflow:visible;"/>
			<clipPath id="SVGID_5_">
				<use xlink:href="#SVGID_38_"  style="overflow:visible;"/>
			</clipPath>
		</g>
	</g>
	<g>
		<g>
			<defs>
				<path id="SVGID_40_" d="M100.9,32.1L100.9,32.1c-0.2,0.3,0.2,1,0.8,1.8l1.5,1.8l12.4,5.2l0.1,0L116,41l-4.1-5l-7.8-3.3
					c-1.4-0.6-2.2-0.8-2.6-0.8C101.1,31.9,101,32,100.9,32.1"/>
			</defs>
			<use xlink:href="#SVGID_40_"  style="overflow:visible;fill:#7F7F7F;"/>
			<clipPath id="SVGID_6_">
				<use xlink:href="#SVGID_40_"  style="overflow:visible;"/>
			</clipPath>
		</g>
	</g>
	<g>
		<g>
			<defs>
				<path id="SVGID_42_" d="M95.8,40.7L95.8,40.7c-0.2,0.3,0.2,1,0.8,1.8l20.5,25.2c1.8,2.2,1.9,2.6,1.7,2.9l3.6-6
					c0,0,0.1-0.2,0.1-0.5c-0.1-0.3-0.5-0.8-0.9-1.3l-14.8-18.2L99,41.3c-1.4-0.6-2.2-0.8-2.6-0.8C96,40.6,95.9,40.6,95.8,40.7"/>
			</defs>
			<use xlink:href="#SVGID_42_"  style="overflow:visible;opacity:0.5;"/>
			<clipPath id="SVGID_8_">
				<use xlink:href="#SVGID_42_"  style="overflow:visible;opacity:0.5;"/>
			</clipPath>
		</g>
	</g>
	<g>
		<g>
			<defs>
				<path id="SVGID_44_" d="M99.5,34.6C99.4,34.6,99.4,34.6,99.5,34.6c-0.1,0.1-0.1,0.1-0.1,0.1c0,0-3.6,6-3.6,6
					c0.2-0.2,0.7-0.4,3.2,0.6l28.3,11.8c0.4,0.2,1.4,0.5,1.8,0.2c0,0,0.2-0.2,0.2-0.2l3.5-6c0,0,0,0,0,0c-0.2,0.2-0.7,0.5-3.2-0.6
					l-26.3-10.9l-2-0.8c-0.3-0.1-0.9-0.3-1.4-0.3C99.7,34.5,99.6,34.5,99.5,34.6"/>
			</defs>
			<use xlink:href="#SVGID_44_"  style="overflow:visible;"/>
			<clipPath id="SVGID_9_">
				<use xlink:href="#SVGID_44_"  style="overflow:visible;"/>
			</clipPath>
		</g>
	</g>
	<g>
		<g>
			<defs>
				<path id="SVGID_46_" d="M122.8,29.7l4.1,5l7.8,3.3c2.5,1.1,3,0.8,3.2,0.6l0-0.1c0.2-0.3-0.3-0.9-0.9-1.7l-1.5-1.8L122.8,29.7z"
					/>
			</defs>
			<use xlink:href="#SVGID_46_"  style="overflow:visible;fill:#7F7F7F;"/>
			<clipPath id="SVGID_11_">
				<use xlink:href="#SVGID_46_"  style="overflow:visible;"/>
			</clipPath>
		</g>
	</g>
	<g>
		<g>
			<defs>
				<path id="SVGID_48_" d="M104.6,25.9c0,0-0.1,0.1-0.1,0.1l-3.6,6c0,0,0,0,0,0c0.2-0.2,0.7-0.4,3.2,0.6l28.3,11.8
					c0.4,0.2,1.4,0.5,1.8,0.2c0,0,0.2-0.2,0.2-0.2l3.5-6c0,0,0,0,0,0c-0.2,0.2-0.7,0.5-3.2-0.6l-7.8-3.3L108.4,27l-2-0.8
					c-0.3-0.1-0.9-0.3-1.4-0.3C104.8,25.9,104.7,25.9,104.6,25.9"/>
			</defs>
			<use xlink:href="#SVGID_48_"  style="overflow:visible;"/>
			<clipPath id="SVGID_12_">
				<use xlink:href="#SVGID_48_"  style="overflow:visible;"/>
			</clipPath>
		</g>
	</g>
	<g>
		<g>
			<defs>
				<path id="SVGID_50_" d="M112.5,47l9.8,12c1.8,2.2,1.9,2.6,1.7,2.9l3.6-6c0-0.1,0.1-0.2,0-0.4c-0.1-0.3-2.4-3.1-2.4-3.1L112.5,47
					z"/>
			</defs>
			<use xlink:href="#SVGID_50_"  style="overflow:visible;fill:#7F7F7F;"/>
			<clipPath id="SVGID_14_">
				<use xlink:href="#SVGID_50_"  style="overflow:visible;"/>
			</clipPath>
		</g>
	</g>
	<g>
		<g>
			<defs>
				<path id="SVGID_52_" d="M117.6,38.3l4.1,5l7.8,3.3c2.5,1.1,3,0.8,3.2,0.6l0-0.1c0.2-0.3-0.3-0.9-0.9-1.7l-1.5-1.8L117.6,38.3z"
					/>
			</defs>
			<use xlink:href="#SVGID_52_"  style="overflow:visible;fill:#7F7F7F;"/>
			<clipPath id="SVGID_15_">
				<use xlink:href="#SVGID_52_"  style="overflow:visible;"/>
			</clipPath>
		</g>
	</g>
	<g>
		<g>
			<defs>
				<path id="SVGID_54_" d="M111.2,14.7c0,0.1-0.1,0.2,0,0.4c0.1,0.3,0.4,0.8,0.9,1.4l1.5,1.8l12.7,5.3l-9.8-12
					c-1.9-2.3-1.8-2.8-1.7-3L111.2,14.7z"/>
			</defs>
			<use xlink:href="#SVGID_54_"  style="overflow:visible;opacity:0.5;"/>
			<clipPath id="SVGID_17_">
				<use xlink:href="#SVGID_54_"  style="overflow:visible;opacity:0.5;"/>
			</clipPath>
		</g>
	</g>
</g>
</svg>
