<svg id="e4bb2280-f599-414b-a322-c17b25257509" data-name="svg4111" xmlns="http://www.w3.org/2000/svg" viewBox="0 0 250 48.258">
  <title>customer-logo-taylormade</title>
  <path id="5a8df1de-c4ba-4762-860f-22a345e79f7d" data-name="path3148" d="M27.829,0C17.195.074,8.057,4.422,2.706,10.669a125.953,125.953,0,0,1,47.271-.657c.046-.335.119-.66.155-.966.009-.079,0-.153,0-.232V8.582a3.814,3.814,0,0,0-2.049-3.595A43.761,43.761,0,0,0,27.829,0Zm68.53,7.46L90.368,34.169h7l5.991-26.708ZM219,7.461l-2.435,11.17h-.077c-1.037-1.993-3.457-3.44-6.957-3.44-6.846,0-10.165,5.663-10.165,11.75a7.479,7.479,0,0,0,7.46,7.653,8.255,8.255,0,0,0,7.267-3.4h.077l-.541,2.976h6.378a26.884,26.884,0,0,1,.425-2.783L225.8,7.461ZM147.418,9.316l-5.836,24.853h6.532l4.677-20.37h.077l.966,20.37h6.8L171.15,13.8h.077l-4.87,20.37h7l5.682-24.853H167.594l-8.426,16.7h-.077l-.425-16.7Zm99.876,1.817A2.706,2.706,0,1,0,250,13.838,2.707,2.707,0,0,0,247.294,11.133Zm0,.5a2.2,2.2,0,0,1,0,4.406,2.2,2.2,0,0,1,0-4.406Zm-.812.657-.58,2.783h.58l.232-1.082h.58c.433,0,.427.159.348.541a1.57,1.57,0,0,0-.039.541h.618l.039-.077c-.111-.046-.125-.133-.039-.541.113-.519.015-.6-.193-.7a.874.874,0,0,0,.58-.657.63.63,0,0,0-.7-.812Zm.464.5h.734c.342,0,.377.2.348.348-.06.275-.238.387-.541.387h-.7Zm-186.34,2.4a23.13,23.13,0,0,0-7.344,1.082l-.7,4.638a13.389,13.389,0,0,1,6.494-1.43c2.268,0,3.711,1.041,3.711,2.358a2.63,2.63,0,0,1-.077.773c-.962-.071-2.364-.193-3.749-.193-6.115,0-11.016,2.248-11.016,6.8,0,3.595,2.379,5.373,6.687,5.373,2.692,0,5.264-.88,6.725-3.015V31.5l.077.077-.309,2.59h5.643c.77-5.588,2.551-9.759,2.551-12.678C69.3,16.935,65.376,15.191,60.606,15.191Zm53.649,0c-7.846,0-12.948,4.426-12.948,10.938,0,4.663,3.013,8.465,10.436,8.465,7.5,0,12.91-3.37,12.91-11.093C124.652,18.84,121.062,15.191,114.255,15.191Zm25.935,0c-2.846,0-5.07,2.081-6.184,4.252h-.077l.773-3.827h-6.416a48.767,48.767,0,0,1-.85,4.831L124.3,34.169h6.919l1.971-8.542c.5-2.741,2.257-5.1,5.179-5.1a5.031,5.031,0,0,1,3.169.812l1.585-5.682A8.452,8.452,0,0,0,140.19,15.191Zm49.088,0a23.123,23.123,0,0,0-7.344,1.082l-.7,4.638a13.389,13.389,0,0,1,6.494-1.43c2.27,0,3.672,1.041,3.672,2.358a2.63,2.63,0,0,1-.077.773c-.962-.071-2.325-.193-3.711-.193-6.116,0-11.054,2.248-11.054,6.8,0,3.595,2.418,5.373,6.725,5.373,2.692,0,5.263-.88,6.725-3.015V31.5l.077.077-.309,2.59h5.643c.77-5.588,2.551-9.759,2.551-12.678C197.975,16.935,194.048,15.191,189.278,15.191Zm46.421,0c-8.922,0-11.982,6.633-11.982,10.938,0,4.663,3.63,8.465,10.32,8.465a27.475,27.475,0,0,0,7-1.044l.889-4.522A16.723,16.723,0,0,1,235.66,30.3c-4.232,0-5.334-1.563-5.411-3.556h14.185a18.874,18.874,0,0,0,.5-3.479C244.937,17.648,240.968,15.191,235.7,15.191Zm-165.584.425,4.406,18.476c-.807,1.888-2.058,3.053-4.02,3.053a10.859,10.859,0,0,1-3.169-.541l-1.469,4.677a18.141,18.141,0,0,0,5.45.773c4.423,0,6.7-2.175,8.735-5.45L93.19,15.616H85.846l-6.8,11.712h-.077L77.149,15.616ZM19.751,18.9a16.256,16.256,0,0,0-1.7.116A80.081,80.081,0,0,0,0,23.54a9.691,9.691,0,0,0,.348,1.237s.039.155.039.155c1.414,4.731,6.048,10.2,13.76,16.234.291.227.572.445.85.657a66.023,66.023,0,0,0,8.774-17.277C25.126,20.336,23.493,18.79,19.751,18.9Zm24.776.155c-.374.008-.746.046-1.121.077-4.794.405-6.617,3.666-9.238,7.846-2.036,3.247-8.653,14.9-11.518,19.944a12.71,12.71,0,0,0,9.895.618,15.021,15.021,0,0,0,4.87-2.319,4.705,4.705,0,0,0,1.121-1.082l.116-.155c.039-.054.079-.1.116-.155,4.307-6.716,7.4-16.973,8.851-22.5.175-.662.342-1.356.5-2.01A19.456,19.456,0,0,0,44.527,19.056Zm191.249.425c2.537,0,3.4,1.64,3.4,3.633h-8.5A5.005,5.005,0,0,1,235.776,19.481Zm-121.869.193c2.692,0,3.595,1.829,3.595,3.749,0,4.2-2.025,6.687-5.257,6.687-2.345.036-3.749-1.645-3.749-4.136C108.5,23.02,110.561,19.675,113.907,19.675Zm97.866.425c2.308,0,3.285,1.937,3.285,3.788,0,2.455-1.948,5.8-5.218,5.8-2.192,0-3.324-1.549-3.324-3.827C206.517,22.976,208.5,20.1,211.773,20.1ZM60.181,25.82a12.046,12.046,0,0,1,1.855.116A5.073,5.073,0,0,1,56.818,30.3a2.141,2.141,0,0,1-2.358-1.817C54.46,26.85,56.874,25.714,60.181,25.82Zm128.672,0a12.057,12.057,0,0,1,1.855.116,5.112,5.112,0,0,1-5.257,4.368,2.1,2.1,0,0,1-2.319-1.817C183.132,26.85,185.546,25.714,188.853,25.82Z"/>
</svg>
