<?xml version="1.0" encoding="utf-8"?>
<!-- Generator: Adobe Illustrator 25.3.1, SVG Export Plug-In . SVG Version: 6.00 Build 0)  -->
<svg version="1.1"
	 id="svg2" inkscape:output_extension="org.inkscape.output.svg.inkscape" inkscape:version="0.92.3 (2405546, 2018-03-11)" sodipodi:docname="Unilever_logo_2004.svg" sodipodi:version="0.32" xmlns:cc="http://creativecommons.org/ns#" xmlns:dc="http://purl.org/dc/elements/1.1/" xmlns:inkscape="http://www.inkscape.org/namespaces/inkscape" xmlns:rdf="http://www.w3.org/1999/02/22-rdf-syntax-ns#" xmlns:sodipodi="http://sodipodi.sourceforge.net/DTD/sodipodi-0.dtd" xmlns:svg="http://www.w3.org/2000/svg"
	 xmlns="http://www.w3.org/2000/svg" xmlns:xlink="http://www.w3.org/1999/xlink" x="0px" y="0px" viewBox="0 0 226 250"
	 style="enable-background:new 0 0 226 250;" xml:space="preserve">
<style type="text/css">
	.st0{fill:#0F0E9A;}
	.st1{fill:#FFFFFF;}
</style>
<g id="layer1_1_" transform="translate(-125.78778,-6.1813767)" inkscape:groupmode="layer" inkscape:label="Layer 1">
	<g id="g7579_1_" transform="matrix(2.8259216,0,0,-2.8259216,-10.998226,2264.5446)">
		<g id="g7581_1_" transform="translate(77.8214,720.1417)">
			<path id="path7583_1_" d="M2.7-7.2c0.7,0,1.9,0.2,2.8,1.7C5-4.4,4.6-2,4.5-1.1C4.3,3.4,6,7.5,7.8,7.7c1.4,0.1,2.5-1.2,2.6-3.3
				C10.8-1.2,8.9-3.5,8-5.5c0.2-0.8,1.5-2.1,2.7-2.1c0.5,0,1,0.2,1.1,0.4c-0.1,0.3-0.2,0.7-0.2,1.3c0,3.2,2.1,5.9,3.9,5.9
				c1.4,0,2.2-1.9,2.2-3.1c0-1.5-1.2-2.7-3.1-3.8c0.3-0.3,0.9-0.6,1.4-0.6c2.6,0,4,3.2,5,6.1C21.3-0.8,21.6,0,22.3,0
				c1.1,0,1.6-7.3,3.4-7.3c0.8,0,1.4,1.6,1.4,2.8c0,0.9-0.3,1-0.3,2.3c0,1.5,0.8,2.7,1.8,2.7c0.6,0,0.9-0.6,0.9-1.4
				c0-2.9-2.1-8.4-5.2-8.4c-2.3,0-2.2,4-3,4c-0.9,0-2.2-4.1-6.7-4.1c-0.7,0-1.5,0.4-2.2,1.1c-1.1-0.7-2-1.1-3.1-1.1
				c-1.7,0-2.4,1.7-3.1,1.7c-0.8,0-1.7-1.8-4.5-1.8c-2.2,0-2.6,2.9-3.3,2.9c-0.7,0-1.7-2.9-2.9-2.9c-1.9,0-2.3,5.1-4,5.1
				c-1.3,0-5.5-5.2-6.7-5.1c-0.5,0-0.7,0.4-0.6,0.9c0.1,0.6,0.6,2.3,0.8,3.1c0.4,1.4,0.7,2.9,0.9,3.4C-13.9-1.3-13.4-1-13-1
				c0.2,0,0.3-0.4,0.3-0.7c0.2-1.1,0.6-2.3,0.9-2.3C-11.1-4-9,0-7.8,0C-6.2,0-6.1-6.4-4-6.4c0.7,0,1.2,0.8,1.7,1.8
				c0,1.7,0.5,4.1,1.9,4.1c1,0,1.4-2.2,0.7-4C0.3-6.7,1.7-7.2,2.7-7.2 M39.4-1.7c-0.6-2.4-2.3-5.8-4.9-5.8c-0.6,0-1.7,0.2-1.7,0.8
				c0,0.6,4,0.7,4,3.8c0,1.1-1.1,2.8-2.6,2.8c-2.1,0-4.1-2.3-4.1-5.4c0-2.8,1.7-3.7,3.5-3.7c3,0,4.9,2.5,5.8,4.5
				c0.5-1.4,0.7-4.5,1.9-4.5c0.5,0,0.8,0.2,1.3,1.5c1.4,3.1,2.7,6.6,4.5,6.6c0.7,0,0.3-1.2,1.9-1.2c0.8,0,1.3,0.6,1.3,1.4
				c0,1.1-1,1.9-2.4,1.9c-4.3,0-5.2-6.5-5.9-6.5c-1.1,0-0.8,5.2-1.6,5.2C39.9-0.5,39.5-1.3,39.4-1.7 M9,3.1C8.9,4.4,8.6,5,7.9,4.9
				C7,4.8,6.6,2,6.7-1c0.1-2,0.4-2.3,0.7-2.3C7.9-3.3,9.1,0.2,9,3.1 M1.5,5.8C1.4,6.5,0.9,7,0.1,7C-0.8,7-1.6,6.1-1.5,5
				C-1.5,4.2-1,3.6-0.1,3.6C0.9,3.6,1.6,4.7,1.5,5.8 M15.8-3.6c0,0.8-0.4,1.4-0.9,1.4c-0.4,0-1.4-0.5-1.4-1.9c0-1.2,0.4-1.7,0.6-1.9
				C15.4-5.6,15.8-4.5,15.8-3.6 M33.7-2c1,0,1.2-1.1,1-1.8c-0.2-0.7-1.1-1.5-2.3-1.7C32.1-4.9,32-2,33.7-2 M-19.1,1.2
				c-0.1,0.4-0.5,1.4-0.6,2c-0.2,1.5,0.6,2.5,1.3,2.8c0.8,0.2,1.1-0.2,1.5-1.1c0.4-1.5,0.5-3.4,0.3-6.1c-0.2-3.8-2.1-8.3-6.7-8.2
				c-4,0.1-5.8,2.7-6,6.7c-0.1,1.9,0,3.8,0.8,6.4c0.4,1.4,0.8,1.9,2.1,2.2c1,0.2,0.9-0.9,0.7-2.1c-0.5-2.8-0.7-4.1-0.6-7.2
				C-26.2-6.7-24.7-8-23-8c2.5,0,3.6,2,4,5C-18.6-0.6-18.9,0.5-19.1,1.2"/>
		</g>
		<g id="g7585_1_" transform="translate(107.4074,782.5911)">
			<path id="path7587_1_" d="M5.4-1.5c0.3-2.3,3.8-5.4,4.8-5.4c0.6,0.1,0.9,3,0.9,5.4c0,1.3,0.1,2.4-0.6,2.6
				C9.3-1.2,6.4-1.6,5.4-1.5 M5.6-0.5c2.5,0,4.8,2,4.8,3.8c0,0.8-0.4,1.5-1.4,1.6c0.2-0.2,0.2-0.4,0.2-0.8c0-1.3-2-2.8-4.3-2.8
				c-0.8,0-1-0.6-1-0.9C4-0.2,4.7-0.5,5.6-0.5 M5.1,2.3c-0.3,0-0.8,0-1.1,0.5C3.8,3.2,3.8,3.9,3.4,4.3c0.4-0.1,0.9-0.1,1.2-0.1
				c1.1,0,2.1,0.8,2.9,0.8c0.5,0,0.7-0.3,0.7-0.7C8.3,3.1,6.1,2.3,5.1,2.3"/>
		</g>
		<g id="g7589_1_" transform="translate(57.2107,768.5641)">
			<path id="path7591_1_" d="M0.8-2.8c0.8,0,0.7,5.1,2,5.1c0.3,0,0.4-0.3,0.4-0.7c0-1.1-0.6-2.8-0.6-3.7c0-0.5,0.1-0.6,0.3-0.6
				c0.6,0,1.6,5.6,2.6,5.6c0.3,0,0.5-0.3,0.5-0.6c0-1.2-1.5-4.5-1.5-5.5c0-0.1,0-0.3,0.2-0.3C5.4-3.6,6.6-1,7,0.3
				c0.2,0.7,0.5,1,0.8,1c0.2,0,0.5-0.3,0.5-0.8c0-1.3-1.2-4.4-2.3-6.5c-0.8-1.6-2.1-3.9-2.1-5.2c0-0.7,0.1-1.3,1.1-2.2
				c-1.6,0.1-2.2,0.2-2.8,1.5c-2.6-5.2,4.8-4.7,2.3-9.3c-0.5,0.8-4.1,1.7-4.1,6.5c0,4.2,3.7,6.6,3.7,8.3c0,0.3-0.1,0.6-0.4,0.9
				C2.7-4.7,2.6-4.1,2-4.1c-0.5,0-1-1.1-0.4-2C1.8-6.5,1.9-6.7,1.9-7c0-0.7-1.1-2.5-1.8-2.5c-0.8,0-1.3,1.9-1.3,4.9
				c0,2.7,0.6,5.4,1.4,5.4c0.2,0,0.3-0.1,0.3-0.3c0-0.3-0.1-0.9-0.1-2C0.3-2.7,0.6-2.8,0.8-2.8"/>
		</g>
		<g id="g7593_1_" transform="translate(62.8963,762.0309)">
			<path id="path7595_1_" d="M1.3-3.4c1,0,1.9,0.8,1.9,2.4v2.5c0,0.9,0.1,2,0.7,2.8C3.8,4,3.8,3.6,3.8,3.3C3.8,1.2,5-0.2,5-2.2
				C5-3,4.8-3.4,4.2-3.4c-0.6,0-0.5,0.5-0.6,0.5c-0.1,0-0.2-0.3-0.2-0.7c0-0.5,0.4-1.3,1.4-1.3c0.9,0,1.6,0.8,1.6,1.7
				c0,2.2-1.7,4.6-1.7,7c0,1,0.3,1.7,0.5,2.2c0-4.8,4.1-8.4,4.1-10.4c0-0.5-0.3-0.8-0.9-0.8c-0.6,0-0.8,0.4-0.8,0.8
				c0,0.2,0,0.2-0.1,0.2c-0.1,0-0.6-0.5-0.6-1.1c0-0.8,0.7-1.8,1.9-1.8c1.4,0,2.1,1.2,2.1,2.2c0,2.6-5,6.4-5,10.6
				c0,0.7,0.1,1.9,0.6,2.7C3.3,6.4,2.3,3.6,2.3,1.2c0-2.1-0.1-3.1-1.1-3.1c-0.6,0-0.7,0.5-0.9,0.5C0.1-1.4,0-1.9,0-2
				C0-2.9,0.7-3.4,1.3-3.4"/>
		</g>
		<g id="g7597_1_" transform="translate(101.5443,784.3086)">
			<path id="path7599_1_" d="M4.9-1.4c1.1,0,1.9,0.5,1.9,0.8c0,0.1-0.1,0.2-0.5,0.2c-0.3,0-0.9,0-2.1,0.2C3.1,0,2.3,0.4,2,0.4
				c-0.1,0-0.1,0-0.1-0.1C1.9-0.4,3.1-1.4,4.9-1.4 M-0.4,1.7C-0.1,1.9,1.2,1.6,3,2.5c0.2,0.1,0.4,0.2,0.6,0.2c0.9,0,0.6-1,1.4-1
				c0.6,0,1.4,0.5,1.9,0.5c0.7,0,1.8-2.3,1.8-3.4c0-1.2-1.9-2-4.1-2c-3.2,0-5.2,2.8-5.2,4.6C-0.6,1.6-0.5,1.7-0.4,1.7"/>
		</g>
		<g id="g7601_1_" transform="translate(63.365,753.6239)">
			<path id="path7603_1_" d="M1.4-4.2C0.6-4.4-0.7-5.6-0.7-7.6c0-2.4,2.6-6.1,6.8-6.1c3.6,0,4.4,2.5,4.4,4.1c0,3.7-2.3,6.3-5.2,6.3
				c-1.6,0-3-1.2-3-2.9c0-1.6,1.2-4,4.1-4c1.4,0,2.2,1,2.2,2.1c0,1.1-1,2.6-2.5,2.6c-0.4,0-0.8-0.3-0.8-0.8c0-0.6,0.8-1.2,1.8-1.2
				c0.2,0,0.4,0,0.5,0.1c0-0.1,0.1-0.2,0.1-0.3c0-0.6-0.5-0.9-1.4-0.9c-1.2,0-2.4,0.9-2.4,2.4c0,0.9,0.8,1.5,1.9,1.5
				c2.2,0,3.5-1.9,3.5-3.8c0-1.7-0.9-2.7-2.9-2.7C2.4-11.2,0.5-7.7,1.4-4.2"/>
		</g>
		<g id="g7605_1_" transform="translate(87.0924,745.0145)">
			<path id="path7607_1_" d="M3.5-5c0-0.5,0.4-1,1-1c0.5,0,1,0.4,1,1s-0.4,1-1,1C4-4,3.5-4.4,3.5-5 M5.4-9.8c1.2,0,1.1,0.1,1.5,0.1
				c0.4,0,0.4-0.2,0.4-0.4c0-0.5-1.2-1.2-3.3-1.2c-1.2,0-2,0.7-2.2,1.4c-1.2-0.8-3.1-1.5-4.9-1.5c-5,0-6.3,2.2-7.8,2.9
				C-12.1-8-14-9-16.5-6.2c0.3-0.1,0.8-0.1,1.2-0.1c2.2,0,3.4,1.1,3.4,2.8c0,0.2,0,0.5,0,0.7c0.7-0.3,2.2-1.4,2.6-3.5
				c0-0.2,1-0.5,1.7-0.5c0.9,0,2,0.4,2.2,1.8c2.9,0.2,4.9,2,5.3,4.2C0.8-1.1,2-2,2.3-2.5c0.4,0.1,0.9,0.2,1.5,0.2
				c0.8,0,1.7-0.1,2.7-0.5c0,0.3,0.1,0.7,0.6,0.7c0.7,0,0.5-0.8,0.8-1.3C8-3.6,8.6-3.7,8.6-4.2c0-0.5-0.4-0.6-0.6-0.6
				c-0.1,0-0.2,0-0.3,0C7.2-5,7.2-8.5,5.1-8.5c-1.5,0-2.9,1.2-3.5,2.8C1.4-5.2,1.1-4.9,0.7-4.9C0.3-4.9,0.1-5-0.3-5.5
				c-1.3-1.4-3.5-2.7-6.2-2.7c-0.8,0-1.5,0.1-1.7,0.1c-0.1,0-0.1,0-0.1,0C-8.3-8.3-7.5-9-5.7-9c4.3,0,5.3,2.4,6,2.4
				c0.1,0,0.4,0,0.6-0.4C1.9-9.3,4.1-9.8,5.4-9.8"/>
		</g>
		<g id="g7609_1_" transform="translate(102.3477,754.7618)">
			<path id="path7611_1_" d="M4.9-4.1c-0.5,0-3.3-3.8-5.2-3.8C-0.7-7.8-1-7-1-6.4C-1-6-0.8-5.8,0-5.6c4.2,1,3.3,4.1,6.8,4.1
				c2,0,4.2-1.3,4.2-4.4c0-3.2-4.6-7.2-5.3-7.2c-0.6,0-1.2,0.8-1.2,1.3c0,0.2,0.1,0.4,0.6,0.6C7.5-10.3,8.8-8.1,8.8-7
				c0,0.2-0.1,0.5-0.4,0.5c-0.4,0-2.2-4-4.2-4c-1.4,0-2.8,1.2-2.8,1.8c0,1,3.9,2.8,3.9,4.1C5.4-4.1,5.1-4.1,4.9-4.1 M7.6-2.6
				c-0.3,0-0.7-0.3-0.7-0.9c0-0.7,0.6-1.2,0.9-1.3C7.9-4.9,8.2-5,8.4-5c0.7,0,1.3,0.2,1.3,0.8C9.7-3.5,8.6-2.6,7.6-2.6"/>
		</g>
		<g id="g7613_1_" transform="translate(63.0973,781.9675)">
			<path id="path7615_1_" d="M1.3-1.6c0-0.5,0.4-1,1-1c0.5,0,1,0.4,1,1c0,0.5-0.4,1-1,1C1.8-0.6,1.3-1,1.3-1.6 M0.1,0.6
				c0-0.5,0.4-1,1-1c0.5,0,1,0.4,1,1s-0.4,1-1,1C0.5,1.6,0.1,1.1,0.1,0.6 M-0.8-6.1c-0.6-0.1-1.7-0.8-1.7-2C-2.5-9-1.8-9.5-1-9.5
				c0.4,0,0.8,0.1,0.9,0.2C-0.7-8.6-1-7.9-1-7.2C-1-6.7-0.9-6.3-0.8-6.1 M-6.8-6.4c0-0.1,0-0.2,0-0.4c0-1.1,0.6-1.8,1.4-1.8
				c0.6,0,1.3,0.4,1.9,1.2c-0.3,0-0.6-0.1-0.9-0.1C-5.2-7.4-6.2-7.2-6.8-6.4 M-7.6-8.6c0-1.9,0.6-2.7,1.6-2.7c0.8,0,1.8,0.6,3.1,1.6
				C-3.9-9.9-4.7-10-5.3-10C-6.2-10-6.9-9.7-7.6-8.6 M-1.3,1.2C-1.2,1.6-1.1,2-1.1,2.6c0,1.2-0.5,2.9-2.2,2.9
				c-0.9,0-1.6-0.8-1.6-1.7C-4.9,2-3,1.2-1.3,1.2 M-3.4-5c-0.8,0-1.7,1-1.7,1.9C-5.1-2.6-4.7-2-4.4-2C-4.3-2-4.3-2-4.3-2.2
				c0.1-1.2,0.9-1.9,1.7-2.2c0.1,0,0.1-0.1,0.1-0.1C-2.5-4.7-2.9-5-3.4-5 M-1.1-2C-1-2.2-0.5-2.5-0.5-2.7c0-0.3-0.2-0.8-0.6-0.8
				c-0.9,0-1.5,1.3-1.5,2C-2.6-1-2.4-0.9-2-0.9c0.2,0,0.2,0,0.4-0.1C-1.4-1.1-1.4-1.6-1.1-2 M-6.9-5c0-0.1-0.1-0.2-0.1-0.3
				c0-0.2,0.2-0.5,0.5-0.5c0.2,0,0.3,0,0.4,0c0.6,0,1.2-0.4,2.2-0.4c0.6,0,1.2,0.2,2,0.6c1.8,0.9,2.4,3,2.4,3.4
				c0,0.5-0.4,0.4-0.7,0.8c-0.3,0.4-0.2,0.8-0.4,1c-0.1,0.1-0.5,0.1-0.9,0.2c-0.1,0-0.3,0-0.5,0c-0.8,0-1.8-0.1-2.8-0.8
				C-6.8-2.2-6.5-4.5-6.9-5 M1.2-4C0.7-4.7,0.1-5.7,0.1-6.8c0-1.3,0.8-2.4,2-2.4c1.2,0,1.8,1,1.8,2.1C3.9-5.5,2.4-4.4,1.2-4 M-4,0.6
				c0,0-0.7-0.5-1.6-0.5c-1,0-1.9,0.8-1.9,1.9c0,0.8,0.4,1.5,1.3,1.9c0-0.1,0-0.3,0-0.4C-6.2,2.1-5.4,1.1-4,0.6"/>
		</g>
		<g id="g7617_1_" transform="translate(97.5309,776.594)">
			<path id="path7619_1_" d="M4.5-2.1c0-0.6,0.5-1,1-1c0.6,0,1,0.5,1,1c0,0.6-0.5,1-1,1C5-1,4.5-1.5,4.5-2.1 M4.6-5.1
				c0-0.6,0.5-1.1,1.1-1.1c0.6,0,1.1,0.5,1.1,1.1C6.9-4.5,6.4-4,5.7-4C5.1-4,4.6-4.5,4.6-5.1 M1.1-7.2c0-0.9,0.8-1.7,1.7-1.7
				c0.9,0,1.7,0.8,1.7,1.7S3.7-5.5,2.8-5.5C1.8-5.5,1.1-6.3,1.1-7.2 M2-3.8c0-0.5,0.4-1,1-1c0.5,0,1,0.4,1,1c0,0.5-0.4,1-1,1
				C2.4-2.8,2-3.2,2-3.8 M-1.2-5.7c0-0.5,0.4-1,1-1c0.5,0,1,0.4,1,1s-0.4,1-1,1C-0.8-4.7-1.2-5.2-1.2-5.7 M1.3,0
				c0-0.9,0.7-1.6,1.6-1.6c0.9,0,1.6,0.7,1.6,1.6c0,0.9-0.7,1.6-1.6,1.6C2,1.5,1.3,0.8,1.3,0 M3.1,3C3.1,2.5,3.5,2,4,2S5,2.5,5,3
				S4.6,3.9,4,3.9S3.1,3.5,3.1,3 M-1.3,0.6c0-0.5,0.4-0.9,0.9-0.9c0.5,0,0.9,0.4,0.9,0.9c0,0.5-0.4,0.9-0.9,0.9
				C-0.9,1.6-1.3,1.1-1.3,0.6 M-1.4-2.5C-1.4-3.4-0.8-4,0.1-4c0.8,0,1.5,0.7,1.5,1.5C1.6-1.7,0.9-1,0.1-1C-0.8-1-1.4-1.7-1.4-2.5
				 M-4.5-4.1c0-0.8,0.6-1.4,1.4-1.4c0.8,0,1.4,0.6,1.4,1.4c0,0.8-0.6,1.4-1.4,1.4C-3.8-2.7-4.5-3.3-4.5-4.1 M-3.7-0.7
				c0-0.5,0.4-1,1-1c0.5,0,1,0.4,1,1s-0.4,1-1,1C-3.2,0.3-3.7-0.1-3.7-0.7 M4.9-8.2c0,0.5,0.4,0.9,0.9,0.9c0.5,0,1-0.4,1-0.9
				c0-0.6-0.4-0.9-1-0.9C5.3-9.1,4.9-8.7,4.9-8.2"/>
		</g>
		<g id="g7621_1_" transform="translate(98.4633,745.3718)">
			<path id="path7623_1_" d="M4.6-4.9c0.1,0,0.3-0.1,0.3-0.5c0-0.5-0.2-1.2-1.1-1.8C3.1-7.7,2.3-8,1.1-8c0.2,0.6,0.3,1.2,0.3,1.8
				c0,0.2,0,0.3,0,0.6h0.3C3.6-5.7,4.5-4.9,4.6-4.9 M4.8-2.5C5-2.4,5-2.1,5-1.8v0.6C5-0.5,4-0.1,2.5-0.1c-1.8,0-2.7-0.8-2.7-1.1
				v-1.1c0-0.5,1.1-0.9,2.4-0.9C3.2-3.3,4.2-3.1,4.8-2.5 M6.1-2.8C5.4-3.3,3.9-4.4,1.5-4.4C0.2-4.4-0.4-4-0.6-4
				c-0.2,0-0.5-0.2-0.8-0.6C-2-5.2-2.7-6.5-2.7-7.9c0-1,0.8-1.9,2.2-1.9c4.6,0,8,2.8,8,5.2C7.4-3.3,6.6-2.8,6.1-2.8"/>
		</g>
		<g id="g7625_1_" transform="translate(100.5839,766.0889)">
			<path id="path7627_1_" d="M4.8-3c0-0.6,0.2-1.3,0.8-1.3c0.5,0,0.9,0.8,0.9,1.6c0,1-0.2,1.7-0.2,2.1c0,0.2,0.1,0.2,0.2,0.2
				c0.4,0,0.7-1,1.1-1c0.4,0,1.1,0.8,1.4,0.8c0.1,0,0.1-0.1,0.1-0.1c0-0.4-0.6-1.2-0.6-1.5c0-0.3,1.4-0.3,1.4-0.6
				c0-0.4-1.5-0.4-2.2-0.7C7.1-3.7,6.7-4.1,6.7-4.6s0.5-0.6,1.2-0.6c1.6,0,2.8,0.9,3.1,0.9c0.1,0,0.1,0,0.1-0.1c0-0.2-0.8-1-0.8-1.4
				c0-0.4,1.5-0.9,1.5-1.1C11.7-7,11.6-7,11.5-7c-0.3,0-0.7,0.1-1,0.1c-0.2,0-0.4,0-0.4-0.1c-0.2-0.2,0-1.5-0.3-1.5
				c-0.3,0-1.1,2.9-3,2.9c-0.3,0-0.5-0.2-0.5-0.6c0-1,0.9-2.1,1.9-2.6c0.4-0.3,1.1-0.5,1.1-0.7c0-0.3-1.6,0-1.6-0.5
				c0-0.4,0.2-1.1,0.2-1.5c0-0.1,0-0.3-0.2-0.3c-0.3,0-1,1.3-1.3,1.3c-0.3,0-0.9-0.8-1.2-0.8c-0.1,0-0.1,0.1-0.1,0.1
				c0,0.6,0.9,1.8,0.9,3.1c0,0.6-0.1,1.9-0.8,1.9c-0.6,0-1.2-0.9-1.5-1.9c-0.2-0.5,0-2.6-0.4-2.6c-0.4,0-0.3,1.4-0.8,1.4
				C2-9.3,1.3-10,1-10c0,0-0.1,0-0.1,0.1c0,0.3,0.7,1.2,0.7,1.4C1.6-8.1,0-8.1,0-7.8c0,0.2,0.6,0.3,1.2,0.4C2.4-7.2,4.3-6.3,4.3-5
				c0,1.4-1.4,2-2.3,2.6C1.5-2.1,1-1.9,1-1.7c0,0.2,0.6,0.2,0.8,0.2c0.4,0,0.7,0,0.7,0.3c0,0.2-0.1,0.7-0.1,1c0,0.2,0,0.4,0.1,0.4
				c0.4,0,0.9-1.2,1.1-1.2c0.4,0,0.9,1,1.3,1c0.1,0,0.2-0.1,0.2-0.3C5.2-1.1,4.8-2.2,4.8-3 M-6.8,4.1c0.3-2.1,3-1,3-3.5
				c0-0.4-0.1-0.9-0.1-1.4c0-0.5,0-1,0.5-1c0.4,0,0.5,0.3,0.5,0.7C-2.9-0.7-3-0.2-3,0c0,0.9,0.6,1,1,1c0.9,0,1.6-0.9,3-0.9
				C0.7-1.4-2.5-1-2.5-2.7c0-0.9,0.9-1,1.4-1c0.5,0,0.7,0.1,0.7,0.5c0,0.2-0.1,0.5-0.1,0.7c0,0.1,0.1,0.2,0.2,0.2
				c0.5,0,3.2-2,3.2-2.6c0-0.6-2.8-1.1-3.6-1.1C-1-6.1-1-5.9-1-5.8c0,0.2,0.4,0.7,0.4,1c0,0.2-0.4,0.4-1.3,0.4c-0.5,0-0.8,0-0.8-0.4
				c0-0.7,1.1-1.5,1.1-2.1c0-0.5-0.3-0.8-1.1-0.8c-0.7,0-1.7,0.5-1.7,1.4c0,0.7,0.7,1.4,0.7,1.8c0,0.1-0.1,0.3-0.4,0.3
				C-5-4.3-5.2-6.7-8.4-7c0.5,0.5,0.9,1,0.9,2c0,0.5-0.1,0.9-0.1,1.5c0,0.7,0.3,1.1,0.8,1.1c0.9,0,1.3-1.3,1.9-1.3
				c0.3,0,0.7,0.3,0.7,0.7c0,1.9-3.6,1.6-3.6,4.2C-7.7,2-7.5,2.9-6.8,4.1"/>
		</g>
		<g id="g7629_1_" transform="translate(94.183,758.1284)">
			<path id="path7631_1_" d="M4.2-3.8c0-0.3,0.2-0.6,0.6-0.6c0.4,0,0.6,0.3,0.6,0.7c0,0.5-0.5,1.2-0.9,1.2C4.3-2.4,4.4-2.7,4.3-3
				C4.3-3.3,4.2-3.6,4.2-3.8 M2.9-0.5C5.5-1,6.9-2.9,6.9-4.7c0-1.2-0.8-2.4-2.1-2.4c-1.2,0-2.1,0.9-2.1,2.2c0,1,0.8,2.1,0.8,3.1
				C3.4-1.4,3.3-0.9,2.9-0.5 M-0.3-4.7C-0.1-4.9,0-5.2,0-5.4c0-0.4-0.2-0.8-0.2-1.2c0-0.6,0.4-1.1,1.1-1.1c0.7,0,1.1,0.5,1.1,1.2
				C2.1-5.6,1.1-4.7-0.3-4.7 M7.8-3.1C7.9-3.4,8-3.6,8-3.9c0-0.7-0.5-1.3-0.5-2c0-0.8,0.6-1.5,1.5-1.5c1,0,1.7,0.8,1.7,1.8
				C10.7-4.3,9.6-3.2,7.8-3.1 M0.3-1.8C1.4-2,1.7-2.4,1.7-2.7c0-0.5-0.5-0.7-1-0.7C0.4-3.4,0-3.3-0.4-3.3c-0.5,0-1.1-0.1-1.5-0.6
				c0.3,0,0.8-0.3,0.8-0.8c0-1.4-3.9-0.2-3.9-3.9c0-1.9,2-4,5-4c1.6,0,2.6,0.5,2.6,1.1c0,0.5-0.8,0.1-0.8,0.5c0,0.2,0.3,0.5,0.3,0.8
				c0,0.1-0.1,0.3-0.3,0.3c-0.4,0-1.3-0.7-2.9-0.7c-1.3,0-2.6,0.8-2.6,1.8c0,0.2,0.1,0.3,0.2,0.3c0.1,0,0.3-0.1,0.5-0.1
				C-3-8.5-3-8.4-3-8.2c0,0.3,0,1,0.5,1c0.5,0,1.3-1.7,4.7-1.7c1.1,0,3.3,0.2,4.1,0.9c0-2.7-2.1-6.2-6.5-6.2c-4.6,0-7,3.7-7,7
				C-7.2-3.4-4.2,0,0,0c1.1,0,2-0.4,2-0.8C2-1.5,0.4-1.1,0.3-1.8"/>
		</g>
		<g id="g7633_1_" transform="translate(76.1656,785.3788)">
			<path id="path7635_1_" d="M2.5-1.3c1.6,0,2.3-1.4,2.3-2.9c0-0.7-0.2-1.7-0.5-1.7S4.1-5.3,4.1-4.8C4-4.2,3.9-4,3.7-4
				C3.3-4,3-5,3-5.9c0-0.6,0.1-1.2,0.5-1.2C3.8-7.1,4-7,4.1-6.8C4-7.9,3.2-8.9,2-8.9c-2.1,0-2.9,2.5-3.2,4c-1.3-1.4-2.5-2.4-4.6-2.4
				c-2,0-2.9,1.5-2.9,2.8C-8.7-4-8.5-3-8-3c0.6,0,0.1-2,1.3-2c0.3,0,0.8,0.2,1.1,1c0.2,0.5,0.3,1,0.3,1.4c0,0.7-0.1,1.1-0.6,1.1
				c-0.4,0-0.9-0.3-1.1-0.5c0.6,1.8,2,2.7,3.6,2.7c1.9,0,2.9-1.7,2.9-3.6c0-0.3,0-0.6-0.1-0.8C0.2-2.3,1.3-1.3,2.5-1.3 M0.7-4.1
				c0,0.4-0.1,0.5-0.2,0.5C0.2-3.6,0-3.9-0.4-4.6c0-0.9,0.2-1.3,0.4-1.3C0.3-5.8,0.7-5,0.7-4.1 M-2.7-5.1c0.3,0,0.6,0.3,1.2,1
				c0,0.3,0,0.6,0,1c0,0.5-0.2,1-0.5,1C-2.6-2.1-3-4.1-3-4.6C-3-4.9-2.8-5.1-2.7-5.1 M1.3-7.3c0.6,0,1.3,2.3,1.3,3.8
				c0,0.3,0,0.7-0.2,0.7C1.9-2.8,1-5.3,1-6.6C1-7.1,1.2-7.3,1.3-7.3 M-4.7-6c0.8,0,1.8,4.5,1.8,5.2c0,0.2-0.1,0.3-0.2,0.3
				c-0.8,0-1.8-4.3-1.8-5.2C-4.9-5.8-4.9-6-4.7-6"/>
		</g>
		<g id="g7637_1_" transform="translate(71.9949,779.3808)">
			<path id="path7639_1_" d="M2.2-1.8c-1,0-1.1-1.3-1.1-3.8C0.3-4-1-2.2-2.5-2.2c-1,0-1.4-0.7-1.4-1.9c0-0.2,0-0.6,0.1-0.8
				c0.1,0.4,0.5,0.6,1,0.6c1,0,2.3-0.8,3.1-1.9C-0.7-6-1.6-5.8-2.4-5.8c-0.5,0-0.9,0-1.3-0.2C-4.4-6.4-5.3-7.4-5.3-9
				c0-0.2,0-0.5,0.1-0.8C-4.4-7.9-2.1-7-0.7-7c0.3,0,0.5,0,0.7,0C-0.7-7.8-0.9-9-1-9.8c0-0.4-0.2-0.4-0.4-0.4c0-0.8,0.6-2,0.6-2.6
				c0-0.2-0.1-0.4-0.2-0.5c0-1.1,1.1-1.9,1.1-2.5c0-0.2,0-0.3-0.1-0.4c0.1-0.4,1.3-1.2,1.4-1.5c0.2-0.4,0.4-0.5,0.5-0.5
				c0.4,0,1.1,0.5,1.1,0.9c0,0.1-0.1,0.3-0.2,0.4c-0.5,0.3-0.7,1.1-0.9,1.6c-0.2,0-0.4,0.1-0.5,0.4c-0.1,0.5-0.1,1.4-0.3,2
				c-0.3,0.1-0.5,0.2-0.5,0.9c0,0.3,0.2,1.6,0.2,2c-0.1,0-0.3,0.1-0.3,0.4c0,0.8,0.8,1.4,1,2.4c1.4-1,1.7-2.1,1.7-3
				c0-0.5-0.1-0.9-0.2-1.4c1,0.5,2.6,1.3,2.6,2.8c0,0.9-0.4,1.9-3.2,2.3c0.9,0.3,1.9,0.5,2.8,0.5c1.6,0,2.5-0.5,2.7-1.6
				c0.3,0.5,0.6,1,0.6,1.6c0,1.2-1,2-2.3,2C4.6-4.2,3.3-5,1.9-6C2.6-4.7,3-3.9,3.8-3.9c0.1,0,0.2,0,0.4,0C3.8-2.9,2.7-1.8,2.2-1.8"
				/>
		</g>
		<g id="g7641_1_" transform="translate(109.5688,763.3025)">
			<path id="path7643_1_" d="M5.6-3.3c1.2,0,2.2-1.6,2.2-3.4c0-2-0.9-4.1-2.6-5.6c0,3.3-4,2.2-4,4.6c0,1,0.7,1.7,1.6,1.7
				c0.8,0,1.4-0.2,1.8-0.7C4.2-6.2,4-5.6,4-5.1C4-4.1,4.5-3.3,5.6-3.3"/>
		</g>
		<g id="g7645_1_" transform="translate(93.0228,786.1155)">
			<path id="path7647_1_" d="M4.1-1.2C3.9-0.9,3.2-0.7,2.8-0.7C1.8-0.7,1-1.5,0.9-2.1C0.8-1.9,0.7-1.6,0.7-1.3
				c0,1.1,0.7,2.4,2.5,2.4c1.6,0,2.2-0.8,2.4-0.8c0.2,0,0.5,0.2,0.7,0.2c0.3,0,0.3-0.4,0.3-0.7c0-1-0.4-2.7-1.5-3.3
				C4.8-3.1,4.4-2.6,3.8-2.3C3.6-2.2,3.6-2.1,3.6-2C3.6-1.7,3.8-1.3,4.1-1.2 M0.4-3c0.6-0.6,1.2-0.9,1.9-0.9c0.3,0,0.6,0.1,0.8,0.1
				c0.2,0,0.4-0.1,0.4-0.3c0-0.3-0.2-0.7-0.5-1c0.3-0.1,0.6-0.2,1-0.2c1.4,0,3,0.9,3,3.1c0.3-0.4,0.5-1.2,0.5-1.6
				c0-2.7-1.9-3.7-3.7-3.7c-1.2,0-1.8,0.4-1.9,0.4c-0.5,0-0.4-0.9-0.8-0.9C0.3-7.7-0.2-6.5-0.2-5.2C-0.2-4.4,0-3.6,0.4-3"/>
		</g>
		<g id="g7649_1_" transform="translate(70.5679,798.6702)">
			<path id="path7651_1_" d="M2,0c0,0.1-0.7,0.3-1.7,0.3c-1.6,0-1.4-1.3-2.6-1.3c-1.3,0-1,1.4-2.6,1.4c-1,0-1.9-0.2-1.9-0.4
				c0-0.3,1.1-0.2,1.1-1C-5.6-1.9-8-2.2-8-2.7c0-0.2,0.2-0.2,0.4-0.2c0.5,0,1.4,0.2,2,0.2c0.3,0,0.7-0.1,0.7-0.4
				c0-0.6-1.3-1.7-1.3-2.2c0-0.1,0.1-0.2,0.2-0.2c0.5,0,1.3,1.2,2.1,1.2C-2.6-4.2-3.5-7-2.8-7C-2-7-2.3-4.3-1.3-4.3
				c0.9,0,1.5-1.9,2.1-1.9C0.9-6.1,1-6,1-5.8c0,0.5-0.7,1.6-0.7,2.2C0.3-3.2,0.6-3,1-3c0.6,0,1.3-0.3,1.7-0.3c0.1,0,0.3,0,0.3,0.2
				c0,0.6-2.2,1.2-2.2,2C0.8-0.4,2-0.4,2,0 M7.8-2.5C7.8-3,9.3-3.9,10-3.9c0.4,0,0.5,0.6,0.5,1.1C10.5-2,10.2-2,9.6-2
				C8.8-2,7.8-2.2,7.8-2.5 M10.3-7.3c0,1.5-4,4.1-4,5.3c0,0.1,0.1,0.2,0.1,0.3c0.7,0.7,3.5,1.2,3.5,1.8c0,0.3-0.6,0.3-0.9,0.3
				c-2.3,0-5.6-0.8-5.6-1.6c0-0.8,3-2.8,3-3.8c0-0.3-0.2-0.4-0.4-0.4c-0.8,0-2.6,1-3.5,1C2.1-4.5,2-4.7,2-5.1c0-1.2,1.4-3.4,1.4-4
				c0-0.1,0-0.2-0.1-0.2C2.8-9.3,0.7-6.9,0-6.9c-0.3,0-0.3-0.4-0.3-0.9v-0.8c0-0.6,0-0.9-0.3-0.9c-0.6,0-0.9,1.8-1.5,1.8
				c-0.6,0-0.8-3.2-1.4-3.2c-0.7,0-0.1,3.5-0.8,3.5c-0.8,0-1.6-2.3-2.1-2.3c-0.2,0-0.2,0.2-0.2,0.4c0,0.7,0.4,1.8,0.4,2.5
				c0,0.3-0.1,0.5-0.4,0.5c-0.8,0-2.4-1.2-3-1.2c-0.1,0-0.2,0-0.2,0.1c0,0.6,2.7,2.4,2.7,3.3c0,0.8-3.7,0.3-3.7,1.2
				c0,0.8,2.6,1.6,2.6,2.4c0,0.7-3.1,1-4.3,1c-1.4,0-2.2-0.2-2.2-0.6c0-0.6,3.3-0.8,3.3-1.4c0-0.5-3.4-2-3.4-2.8
				c0-0.7,4.8,0,4.8-0.8c0-0.8-4.2-4.4-4.2-5.6c0-0.3,0.2-0.4,0.5-0.4c1.3,0,4.6,2.4,5.5,2.4C-8-8.7-8-9.1-8-9.4
				c0-0.6-0.2-1.6-0.2-2.3c0-0.6,0.1-0.9,0.6-0.9c0.9,0,1.7,1.5,2.3,1.5c0.8,0,0.3-4.5,1.5-4.5c1,0,1.4,4.9,2,4.9
				c0.6,0,1.1-1.4,1.7-1.4c0.7,0,0.4,2.5,1.2,2.5c0.9,0,3.3-2.9,4.4-2.9C5.9-12.7,6-12.4,6-12c0,1.3-1.8,4.2-1.8,5.1
				c0,0.2,0.1,0.3,0.3,0.3c1,0,3.7-1.3,5-1.3C10-7.9,10.3-7.7,10.3-7.3 M-11.9-5.9c0-0.5-1.8-2.1-2.5-2.1c-0.2,0-0.3,0.3-0.3,0.6
				c0,0.5,0.2,1.2,0.5,1.4c0.3,0.3,1,0.4,1.6,0.4C-12.3-5.7-11.9-5.7-11.9-5.9 M6-8.4c0-0.9,3-5,3.6-5c0.5,0,0.9,0.9,0.9,1.6
				c0,0.2,0,0.4-0.1,0.5c-0.4,0.6-3.5,3-4.2,3C6-8.3,6-8.4,6-8.4"/>
		</g>
		<g id="g7653_1_" transform="translate(109.9702,797.7327)">
			<path id="path7655_1_" d="M5.6-0.1c0-0.3,0.3-0.6,0.6-0.6c0.3,0,0.6,0.3,0.6,0.6c0,0.3-0.3,0.6-0.6,0.6C5.9,0.5,5.6,0.2,5.6-0.1
				 M1.7-5.5c0,1.7-4.1,2.2-4.1,2.6c0,0.3,2.3,0.9,3.5,0.9C-0.8,0.3-3.4,0-3.4,0.4c0,0.2,1.9,0.7,3.7,0.7c1.5,0,2.9-0.3,2.9-1.5
				c0-0.6-0.5-1.3-0.5-2.3c0-0.5,0.3-1,1-1c0.8,0,0.9,0.8,0.9,1.7c0,0.7-0.1,1.2-0.1,1.6c0,1,0.7,1.7,1.7,1.7c0.8,0,1-0.4,2.2-0.4
				C7.8,0.6,7.6-0.1,7.6-0.4c0-1,0.7-1.7,0.7-3.8c0-3.8-3.6-5.2-8-5.2c-1.2,0-2.5,0.1-3.8,0.3c-0.2,0-0.2,0.1-0.2,0.2
				c0,0.3,1.7,0.5,1.7,2c0,0.6-0.2,1.2-0.2,1.4c0,0.1,0.1,0.2,0.2,0.2c0.4,0,1.1-1.4,2.5-1.4C0.8-6.8,1.7-6.6,1.7-5.5 M5.8-3.1
				c0-2.2-1.6-3.8-4.4-4.3c0.3,0,0.6,0,0.9,0c3.3,0,4.6,1.5,4.6,2.8C6.8-3.9,6.4-3.2,5.8-3.1"/>
		</g>
		<g id="g7657_1_" transform="translate(108.5688,766.3125)">
			<path id="path7659_1_" d="M5.5-3c0.4,1.2,0.9,2.1,1.7,3.4C6.4,0.8,4.3,1.7,4.3,3.1c0,1.7,2.1,3,2.5,3C7,6.1,7,5.9,7,5.6
				c0-0.9-0.4-2.3-0.4-3c0-0.7,0.4-1.3,0.8-1.3C7.9,1.2,9,2.7,9,4.1c0,2.6-2.3,3.4-3,3.4c-0.7,0-1.9-1.1-4.7-1.1
				c-5.2,0-6.4,5.2-6.4,7.4C-5,14-5,14-5,14c0.1,0,0.6-0.6,2.3-0.6c0.9,0,1.6,0.2,2.9,0.2c2.9,0,4.2-2,6-4.6
				c1.1-0.7,3.7-1.8,3.7-4.9c0-2.7-2.9-4.2-3.6-7.2c1.1,0.1,1.8,2.1,2.9,2.1c0.6,0,0.9-0.5,0.9-1.2c0-1.1-0.6-2.7-1.8-3.7
				c0,0.1,0,0.2,0,0.4c0,0.7-0.3,1.7-1,1.7C6.1-3.8,5.7-5.1,5-6.2C4.3-3.7,3.3-1.5,1.6-0.1C-0.1,1.3-3.1,0.5-3.1,3
				c0,0.7,0.4,1.7,0.4,2.4c0,0.3,0,0.5-0.2,0.7c2.3-0.9,1.5-2.4,2.9-4c0.9-1,3.4-2,4.8-6.2c0,0.1,0,0.4,0,0.7c0,3.6-4.8,7.1-5.2,8.6
				c2.8-0.3,3.3-1,4.6-4.7C4.6-0.2,5.5-2.1,5.5-3 M4.9,8.8c0,0.5-1.3,0.6-1.4,2c0,0.2-0.1,0.6-0.4,0.6c-0.4,0-0.1-1.3-0.6-1.3
				c-1.1,0-1.5,2.2-1.9,2.2c-0.1,0-0.2-0.1-0.2-0.4c0-0.3,0-0.4,0-0.8c0-0.3-0.1-0.5-0.4-0.5c-0.7,0-1.2,1.5-1.8,1.5
				c-0.1,0-0.2-0.1-0.2-0.2c0-0.3,0.5-0.8,0.5-1.1c0-0.6-1.6-0.3-1.6-0.8c0-0.2,0.2-0.3,0.5-0.3C-2,9.8-1.2,10-0.8,10
				c0.2,0,0.6,0,0.6-0.4c0-0.3-0.9-0.8-0.9-1.1c0-0.1,0.1-0.2,0.3-0.2c0.7,0,1.8,1.1,2.7,1.1c0.1,0,0.5-0.1,0.5-0.3
				c0-0.3-0.8-0.9-0.8-1.3c0-0.1,0.1-0.3,0.2-0.3c0.4,0,1,1.1,1.8,1.1c0.3,0,0.8-0.1,1-0.1C4.8,8.6,4.9,8.7,4.9,8.8"/>
		</g>
		<g id="g7661_1_" transform="translate(91.3742,790.4869)">
			<path id="path7663_1_" d="M3.9-0.8c0.4,0,0.5-1,0.5-1.5c0-0.3,0.1-0.3,0.2-0.3c0.3,0,0.8,1.1,1.1,1.1c0.5,0,1.7-1.3,3.8-1.3
				c2.9,0,5.7,2.1,5.7,5.7c0,3.5-2.5,5.6-5.9,5.6c-1.6,0-2.8-0.8-3.5-0.8c-0.4,0-1,0.9-1.3,0.9C4.5,8.7,4.4,8.4,4.4,8
				c0-0.3,0-1.1-0.3-1.1C3.5,6.9,1.2,8.6,1.2,8c0-0.6,1.5-2.3,1.5-2.7c0-0.4-1.5-0.9-1.5-1.1c0-0.5,1.6-0.6,1.6-1.3
				c0-0.7-1.7-1.2-1.7-1.7c0-0.4,1.7-0.1,1.7-0.6S1.6-1.8,1.6-2.3c0-0.1,0-0.1,0.1-0.1C2.2-2.4,3.6-0.8,3.9-0.8 M4.6,3.2
				c0,0.3-1,0.8-1,1.1c0,0,0,0.1,0.1,0.1c0.3,0,0.7-0.1,1.1-0.1c0.3,0,0.4,1.4,0.6,1.4c0.2,0,0.5-1.3,0.7-1.3c0.3,0,0.9,0.4,1.1,0.4
				c0,0,0.1,0,0.1-0.1c0-0.2-0.6-0.8-0.6-1c0-0.2,1.4-0.5,1.4-0.7c0-0.2-1.4-0.2-1.4-0.4c0-0.2,0.5-0.9,0.5-1.1c0,0,0-0.1-0.1-0.1
				c-0.2,0-1,0.3-1.2,0.3c-0.3,0-0.7-1-0.9-1c-0.1,0-0.1,0.1-0.1,0.2L5,1.9C5,2,5,2.1,4.9,2.1c-0.3,0-0.9,0-1,0
				c-0.1,0-0.2,0-0.2,0.1C3.7,2.3,4.6,3,4.6,3.2 M9.4-1.4c-1.7,0-2.8,0.9-2.8,1.3c0,0.2,0.1,0.4,0.3,0.4c0.5,0,1.7-0.8,2.1-0.8
				c0.1,0,0.2,0,0.2,0.2c0,0.4-0.4,1.2-0.4,1.5c0,0.1,0.1,0.2,0.2,0.2c0.7,0,1.6-0.3,2.1-0.3c0.2,0,0.2,0.1,0.2,0.2
				c0,0.5-1.6,1.6-1.6,1.9c0,0.3,2,0.7,2,1.2c0,0.5-2.7,0.1-2.7,0.6c0,0.3,0.5,0.9,0.5,1.2c0,0.1-0.1,0.2-0.3,0.2
				c-0.2,0-1.4-0.5-1.9-0.5c-0.2,0-0.5,0-0.5,0.4c0,0.6,1,1.2,2.4,1.2c2.4,0,3.8-1.7,3.8-4.4C13.2-0.6,10.7-1.4,9.4-1.4"/>
		</g>
		<g id="g7665_1_" transform="translate(81.2725,751.3269)">
			<path id="path7667_1_" d="M3-4.4c0-0.2-0.1-0.5-0.3-0.7c-0.3,0.5-1,0.7-1.4,0.7C-1.1-4.4-0.2-8-2.9-8C-4-8-4.1-7.8-4.5-7.8
				c-0.2,0-0.3-0.1-0.3-0.2c0-0.6,0.9-2.2,3.4-2.2s4.9,1.5,4.9,3.4c0,0.3-0.1,0.7-0.2,1c0.1,0.1,0.3,0.2,0.6,0.2
				c0.4,0,0.6-0.4,1-0.4c0.4,0,0.7,0.3,0.7,0.7c0,0.3-0.2,0.5-0.5,0.7C5.3-4.5,5.4-4.3,5.4-4c0,0.4-0.3,0.8-0.8,0.8
				c-0.2,0-0.4-0.1-0.5-0.2c0,0.4-0.3,0.9-0.8,0.9C3-2.6,2.7-2.9,2.7-3.3C2.7-3.7,3-4,3-4.4"/>
		</g>
		<g id="g7669_1_" transform="translate(75.2738,750.4785)">
			<path id="path7671_1_" d="M2.5-4.5c-0.7,0-1.8,0.8-1.8,1.2c0,0.4,0.3,0.6,0.6,0.6c0.6,0,1.7-0.8,1.7-1.4C2.9-4.2,2.8-4.5,2.5-4.5
				 M-4.3,1c1.9-0.5,2.9-1.5,3.1-2.8C-1-3-0.8-4-0.3-4.4c0.6-0.7,1.8-1.3,2.8-1.3c0.9,0,1.6,0.3,1.6,1.1c0,0.9-1.2,2.8-2.9,2.8
				c-0.2,0-0.4,0-0.6,0c-0.2,0-0.5,0-0.7,0.2c-0.4,0.3-0.5,2.2-1.2,3.3c-0.8,1.2-1.7,1.6-2.9,1.6c-0.9,0-1.8-0.5-1.8-1.1
				C-6.1,1.7-5.9,1.4-4.3,1"/>
		</g>
		<g id="g7673_1_" transform="translate(80.2467,758.1957)">
			<path id="path7675_1_" d="M2.9-3.8c0,1.1-2.3,1.1-2.3,2.8c0,0.4,0.3,1.1,0.8,1.9C1.7-0.4,2.2-1,3.3-1.4c2.2-0.8,2.5-2,2.5-3.3
				c0-2.2-1.5-4.9-5.5-4.9c-3.2,0-5.4,2.8-5.4,5.2c0,0.7,0.2,1.4,0.6,1.4c0.4,0,0.5-0.3,0.8-0.6C-2.7-4.8-1.5-5,0.2-5
				C1.8-5,2.9-4.4,2.9-3.8 M3-5.5C2.2-5.9,1.8-5.8,1.8-6.7c0-0.3-0.1-0.7-0.1-0.9c0-0.3,0-0.5,0.4-0.5c0.9,0,2.3,1.5,2.3,2.8
				C4.4-5,4.2-4.9,4-4.9C3.8-4.9,3.6-5.2,3-5.5 M-4.7,6.8c0,1.6,3.7,2.4,3.7,4.3c0,0.3-0.1,0.9-0.3,1.3c1.3-0.7,2.2-1.9,2.2-2.9
				c0-1.7-1.8-2.5-1.8-3.5C-0.9,4.8,1,4.6,1,3.1c0-1.2-1.8-2.7-1.8-4.3c0-1.2,0.9-2.3,2.2-2.4C1-3.7,0.6-3.8,0.2-3.8
				c-2.5,0-5,2-5,4.4c0,1.2,0.5,2.2,1.3,3c0.7-0.6,1.4-1,1.8-1c0.4,0,0.6,0.2,0.6,0.5C-1.2,4-4.7,4.9-4.7,6.8"/>
		</g>
		<g id="g7677_1_" transform="translate(60.2869,756.8351)">
			<path id="path7679_1_" d="M1.1-3.9C1.2-4.7,2-5.3,2.8-5.2c0.3,0,0.6,0.1,0.8,0.2c0.2-0.8,0.8-1.3,1.7-1.2C6.3-6,6.9-5.3,6.8-4.4
				c0,0.2-0.1,0.4-0.1,0.6c0,0,0.1,0,0.2,0C7.7-3.7,8.3-3,8.2-2.1C8.2-1.3,7.4-0.6,6.5-0.7C6.2-0.7,5.9-0.9,5.7-1
				C5.5-0.3,4.8,0.3,3.9,0.2C3.1,0,2.5-0.7,2.6-1.6c0-0.1,0-0.3,0.1-0.5c0,0-0.1,0-0.2,0C1.7-2.2,1-2.9,1.1-3.9 M5.6-2.9
				c0.1-0.5-0.3-1-0.8-1c-0.5-0.1-1,0.3-1,0.8c-0.1,0.5,0.3,1,0.8,1C5.1-2,5.6-2.4,5.6-2.9"/>
		</g>
	</g>
</g>
</svg>
